<?xml version="1.0" encoding="utf-8"?>
<!-- Generator: Adobe Illustrator 26.3.1, SVG Export Plug-In . SVG Version: 6.00 Build 0)  -->
<svg version="1.1" id="Layer_1" xmlns="http://www.w3.org/2000/svg" xmlns:xlink="http://www.w3.org/1999/xlink" x="0px" y="0px"
	 viewBox="0 0 726 213.38" style="enable-background:new 0 0 726 213.38;" xml:space="preserve">
<g>
	<path d="M32.11,88.4v85.02c0,2.02,1.64,3.66,3.66,3.66h134.64c2.02,0,3.66-1.64,3.66-3.66V88.4c0-2.02-1.64-3.66-3.66-3.66H35.77
		C33.75,84.74,32.11,86.38,32.11,88.4z M160.15,156.04H46.03c-1.12,0-2.03-0.91-2.03-2.03v-18.33c0-1.12,0.91-2.03,2.03-2.03h114.12
		c1.12,0,2.03,0.91,2.03,2.03v18.33C162.18,155.13,161.27,156.04,160.15,156.04z M160.15,121.26H46.03c-1.12,0-2.03-0.91-2.03-2.03
		V100.9c0-1.12,0.91-2.03,2.03-2.03h114.12c1.12,0,2.03,0.91,2.03,2.03v18.33C162.18,120.35,161.27,121.26,160.15,121.26z"/>
	<g>
		<path d="M60.62,181.25h-11.2c-2.57,0-4.65-2.08-4.65-4.65v0c0-2.57,2.08-4.65,4.65-4.65h11.2c2.57,0,4.65,2.08,4.65,4.65v0
			C65.27,179.17,63.19,181.25,60.62,181.25z"/>
		<path d="M156.75,181.25h-11.2c-2.57,0-4.65-2.08-4.65-4.65v0c0-2.57,2.08-4.65,4.65-4.65h11.2c2.57,0,4.65,2.08,4.65,4.65v0
			C161.41,179.17,159.32,181.25,156.75,181.25z"/>
	</g>
	<path d="M158.32,73.95c-7.09-23.79-29.14-41.13-55.23-41.13c-26.09,0-48.14,17.35-55.23,41.13c-0.7,2.34,1.07,4.69,3.51,4.69h35.19
		c1.03,0,1.99-0.44,2.7-1.19c3.46-3.69,8.38-5.99,13.83-5.99s10.36,2.31,13.83,5.99c0.7,0.75,1.67,1.19,2.7,1.19h35.19
		C157.25,78.64,159.02,76.29,158.32,73.95z M133.21,55.03l-1.73,1.73c-0.31,0.31-0.82,0.32-1.13,0.02
		c-6.97-6.68-16.09-10.36-25.77-10.36c-9.69,0-18.81,3.67-25.77,10.36c-0.32,0.3-0.82,0.29-1.13-0.02l-1.73-1.73
		c-0.32-0.32-0.32-0.85,0.01-1.17c7.73-7.43,17.86-11.52,28.62-11.52s20.89,4.08,28.62,11.52
		C133.53,54.18,133.54,54.71,133.21,55.03z"/>
	<path d="M224.14,163.43l-19.08-54.51h14.99l13.08,38.16l13.08-38.16h14.99l-19.08,54.51H224.14z"/>
	<path d="M280.48,108.92v54.51h-14.72v-54.51H280.48z"/>
	<path d="M298.67,163.43h-13.63v-54.51h13.45l20.9,30.71v-30.71h13.63v54.51h-13.45l-20.9-30.71V163.43z"/>
	<path d="M377.45,108.92l-11.99,23.53l-11.99-23.53h-15.9l19.99,39.34l-7.75,15.17h15.86l27.69-54.51H377.45z"/>
	<path d="M435.71,151.07v12.36h-37.79v-54.51h14.72v42.16H435.71z"/>
	<path d="M482.19,120.73c-10.72,0-12.99,6.81-12.99,15.45c0,8.9,2.27,15.54,12.99,15.54c5.63,0,10.54-1.45,14.17-3.27v12.72
		c-4.54,1.91-10.45,3.18-16.99,3.18c-17.99,0-24.89-11.36-24.89-28.16c0-16.72,6.91-28.16,24.89-28.16c6.45,0,12.9,1.36,16.99,3.18
		V124C492.64,122.09,487.64,120.73,482.19,120.73z"/>
	<path d="M546.53,149.89c1.18,2.54,2,4.18,4.82,4.18c0.91,0,2-0.18,2.91-0.55v8.81c-2,0.82-5.45,2-9.9,2c-4.36,0-8.27-1.82-9.9-5.27
		c-3.91-8.27-3.18-15.81-13.72-15.81c-2.45,0-4.27,0.45-5.09,0.73v19.44h-14.72v-54.51h25.89c14.45,0,21.71,7.9,21.71,17.08
		c0,5.54-2.54,10.72-7.72,13.99C543.08,142.62,544.8,145.99,546.53,149.89z M515.64,120.64v11.27h10.9c4.91,0,7.45-2.27,7.45-5.63
		c0-3.45-2.54-5.63-7.45-5.63H515.64z"/>
	<path d="M573.51,154.16l-3.54,9.27h-14.72l21.17-54.51h17.08l21.17,54.51h-14.72l-3.54-9.27H573.51z M591.96,142.53l-7-18.17
		l-7,18.17H591.96z"/>
	<path d="M634.93,163.43h-14.72v-42.16H604.4v-12.36h46.34v12.36h-15.81V163.43z"/>
	<path d="M694.45,151.07v12.36H655.3v-54.51h39.16v12.36h-24.44v8.18h21.8v12.36h-21.8v9.27H694.45z"/>
</g>
</svg>
